<mxfile host="www.draw.io" modified="2020-02-17T14:38:39.802Z" agent="Mozilla/5.0 (Windows NT 10.0; Win64; x64) AppleWebKit/537.36 (KHTML, like Gecko) Chrome/79.0.3945.130 Safari/537.36 OPR/66.0.3515.72" etag="pRgoo8Y3dh3AcTkSqw1I" version="12.7.0" type="github">
  <diagram id="V4vArCdoLRdWJe26B5oa" name="Page-1">
    <mxGraphModel dx="663" dy="433" grid="1" gridSize="10" guides="1" tooltips="1" connect="1" arrows="1" fold="1" page="1" pageScale="1" pageWidth="827" pageHeight="1169" math="0" shadow="0">
      <root>
        <mxCell id="0"/>
        <mxCell id="1" parent="0"/>
        <mxCell id="1-MEFXGFH794L-h2JqKA-1" value="1. set storage" style="edgeStyle=orthogonalEdgeStyle;rounded=0;orthogonalLoop=1;jettySize=auto;html=1;exitX=1;exitY=0.5;exitDx=0;exitDy=0;entryX=0;entryY=0.5;entryDx=0;entryDy=0;" edge="1" parent="1" source="1-MEFXGFH794L-h2JqKA-2" target="1-MEFXGFH794L-h2JqKA-4">
          <mxGeometry relative="1" as="geometry"/>
        </mxCell>
        <mxCell id="1-MEFXGFH794L-h2JqKA-2" value="Index" style="rounded=0;whiteSpace=wrap;html=1;" vertex="1" parent="1">
          <mxGeometry x="150" y="150" width="120" height="60" as="geometry"/>
        </mxCell>
        <mxCell id="1-MEFXGFH794L-h2JqKA-3" value="2.bg result" style="edgeStyle=orthogonalEdgeStyle;rounded=0;orthogonalLoop=1;jettySize=auto;html=1;exitX=0.5;exitY=1;exitDx=0;exitDy=0;entryX=0.5;entryY=1;entryDx=0;entryDy=0;" edge="1" parent="1" source="1-MEFXGFH794L-h2JqKA-4" target="1-MEFXGFH794L-h2JqKA-2">
          <mxGeometry relative="1" as="geometry"/>
        </mxCell>
        <mxCell id="1-MEFXGFH794L-h2JqKA-4" value="Content" style="rounded=0;whiteSpace=wrap;html=1;" vertex="1" parent="1">
          <mxGeometry x="380" y="150" width="120" height="60" as="geometry"/>
        </mxCell>
      </root>
    </mxGraphModel>
  </diagram>
</mxfile>
